<?xml version="1.0" standalone="no"?>
<!DOCTYPE svg PUBLIC "-//W3C//DTD SVG 20010904//EN"
 "http://www.w3.org/TR/2001/REC-SVG-20010904/DTD/svg10.dtd">
<svg version="1.0" xmlns="http://www.w3.org/2000/svg"
 width="285.000000pt" height="285.000000pt" viewBox="0 0 285.000000 285.000000"
 preserveAspectRatio="xMidYMid meet">
<metadata>
Created by potrace 1.11, written by Peter Selinger 2001-2013
</metadata>
<g transform="translate(0.000000,285.000000) scale(0.100000,-0.100000)"
fill="#000000" stroke="none">
<path d="M10 2725 c0 -4 15 -35 34 -68 70 -128 84 -154 118 -217 20 -36 129
-236 243 -445 114 -209 222 -407 240 -440 126 -233 178 -325 188 -333 7 -6 62
-22 122 -37 61 -14 117 -27 125 -29 8 -2 85 -21 170 -41 85 -21 158 -40 162
-44 4 -3 -34 -80 -83 -171 -131 -240 -159 -292 -159 -301 0 -7 57 -115 158
-299 20 -36 50 -91 67 -122 35 -66 25 -73 105 77 29 55 61 114 70 130 10 17
36 66 60 110 23 44 46 85 51 90 4 6 -28 75 -77 165 -47 85 -106 192 -130 237
l-45 82 38 10 c21 6 139 35 263 66 124 31 241 60 260 65 29 8 41 19 63 62 15
29 34 64 42 78 15 27 203 371 275 505 24 44 64 118 90 165 26 47 71 130 100
185 29 55 56 105 60 110 4 6 24 42 45 80 20 39 50 93 65 120 15 28 46 84 68
126 23 42 42 79 42 81 0 3 -26 -1 -57 -8 -32 -7 -71 -16 -88 -18 -16 -3 -84
-17 -150 -31 -66 -14 -157 -33 -203 -42 l-82 -17 -47 -85 c-64 -119 -61 -114
-433 -796 -183 -335 -339 -618 -346 -629 -11 -17 -15 -14 -38 33 -15 28 -36
68 -48 88 -25 46 -165 300 -221 403 -23 41 -51 93 -63 115 -13 22 -35 62 -50
90 -15 27 -62 113 -104 190 -43 77 -130 237 -195 355 -64 118 -122 220 -128
227 -7 6 -131 37 -277 67 -146 31 -273 59 -282 62 -10 3 -18 2 -18 -1z"/>
</g>
</svg>
